<?xml version="1.0" encoding="UTF-8"?>
<svg xmlns="http://www.w3.org/2000/svg" xmlns:xlink="http://www.w3.org/1999/xlink" viewBox="0 0 32 32">
  <defs>
    <linearGradient id="favicon-gradient" x1="16" y1="32" x2="16" y2="0" gradientUnits="userSpaceOnUse">
      <stop offset=".26" stop-color="#4f00c4"/>
      <stop offset="1" stop-color="#ff5cf3"/>
    </linearGradient>
  </defs>
  <path fill="url(#favicon-gradient)" d="M16,0L3,7.5v17L16,32l13-7.5v-17L16,0z"/>
  <path fill="#fff" d="M22,20h-1v-8c0-0.3-0.1-0.6-0.2-0.8c-0.1-0.2-0.3-0.4-0.6-0.5c-0.3-0.1-0.6-0.1-0.9-0.1c-0.3,0.1-0.6,0.2-0.8,0.5 l-2.4,2.5c-0.3,0.3-0.7,0.5-1.1,0.5c-0.4,0-0.8-0.2-1.1-0.5l-2.4-2.5c-0.2-0.2-0.5-0.4-0.8-0.5c-0.3-0.1-0.6-0.1-0.9,0.1 c-0.2,0.1-0.4,0.3-0.6,0.5C9.1,11.4,9,11.7,9,12v8H8v-8c0-0.4,0.1-0.7,0.3-1c0.2-0.3,0.4-0.5,0.7-0.7c0.3-0.2,0.7-0.2,1.1-0.1 c0.4,0.1,0.7,0.3,1,0.6l2.4,2.5c0.3,0.3,0.6,0.4,0.8,0.4s0.6-0.1,0.8-0.4l2.4-2.5c0.3-0.3,0.6-0.5,1-0.6c0.4-0.1,0.7-0.1,1.1,0.1 c0.3,0.1,0.5,0.4,0.7,0.7c0.2,0.3,0.3,0.6,0.3,1V20z"/>
</svg>