<?xml version="1.0" encoding="utf-8"?>
<!-- Generator: Adobe Illustrator 28.0.0, SVG Export Plug-In . SVG Version: 6.00 Build 0)  -->
<svg version="1.1" id="Capa_1" xmlns="http://www.w3.org/2000/svg" xmlns:xlink="http://www.w3.org/1999/xlink" x="0px" y="0px"
	 viewBox="0 0 29.1 26.5" style="enable-background:new 0 0 29.1 26.5;" xml:space="preserve">
<style type="text/css">
	.st0{fill:url(#SVGID_1_);}
	.st1{fill:#FFFFFF;stroke:#FFFFFF;stroke-width:0.3;stroke-miterlimit:10;}
</style>
<linearGradient id="SVGID_1_" gradientUnits="userSpaceOnUse" x1="9" y1="8" x2="9" y2="28" gradientTransform="matrix(1 0 0 -1 0 28)">
	<stop  offset="0.26" style="stop-color:#4F00C4"/>
	<stop  offset="1" style="stop-color:#FF5CF3"/>
</linearGradient>
<path class="st0" d="M1,15.7c-0.3-0.2-0.6-0.4-0.7-0.7S0,14.3,0,14V6c0-0.4,0.1-0.7,0.3-1S0.7,4.5,1,4.3l7-4C8.3,0.1,8.6,0,9,0
	s0.7,0.1,1,0.3l7,4c0.3,0.2,0.6,0.4,0.7,0.7S18,5.7,18,6V14c0,0.4-0.1,0.7-0.3,1s-0.4,0.5-0.7,0.7l-7,4C9.7,19.9,9.4,20,9,20
	s-0.7-0.1-1-0.3L1,15.7z"/>
<path class="st1" d="M15,14.2h-0.2V8.6c0-0.2,0-0.3-0.1-0.4s-0.2-0.2-0.4-0.3c-0.2-0.1-0.4-0.1-0.6-0.1s-0.4,0.1-0.5,0.3l-3.4,3.6
	c-0.2,0.2-0.5,0.3-0.7,0.3c-0.3,0-0.5-0.1-0.7-0.3L4.8,8.1C4.6,7.9,4.5,7.8,4.2,7.8s-0.4,0-0.6,0.1C3.5,7.9,3.4,8,3.3,8.1
	S3.2,8.4,3.2,8.6v5.6H2.9V8.6C2.9,8.3,3,8.1,3.1,8s0.3-0.3,0.5-0.4C3.8,7.5,4,7.5,4.3,7.5S4.8,7.7,5,7.9l3.4,3.6
	c0.2,0.2,0.4,0.2,0.6,0.2s0.4-0.1,0.6-0.2l3.4-3.6c0.2-0.2,0.4-0.3,0.7-0.4s0.5,0,0.7,0.1c0.2,0.1,0.4,0.2,0.5,0.4
	C14.9,8.1,15,8.3,15,8.6V14.2z"/>
</svg>
